<?xml version="1.0" standalone="no"?>
<!DOCTYPE svg PUBLIC "-//W3C//DTD SVG 20010904//EN"
 "http://www.w3.org/TR/2001/REC-SVG-20010904/DTD/svg10.dtd">
<svg version="1.0" xmlns="http://www.w3.org/2000/svg"
 width="500.000000pt" height="500.000000pt" viewBox="0 0 500.000000 500.000000"
 preserveAspectRatio="xMidYMid meet">
<metadata>
Created by potrace 1.11, written by Peter Selinger 2001-2013
</metadata>
<g transform="translate(0.000000,500.000000) scale(0.100000,-0.100000)"
fill="#000000" stroke="none">
<path d="M2245 4989 c-38 -5 -108 -15 -155 -24 -47 -8 -96 -16 -110 -19 -41
-7 -189 -46 -228 -60 -21 -7 -55 -19 -77 -26 -79 -24 -259 -104 -359 -158
-224 -122 -400 -254 -586 -441 -188 -189 -351 -411 -455 -621 -137 -274 -203
-491 -261 -860 -4 -25 -9 -660 -11 -1413 l-4 -1367 1323 1 c1307 1 1448 4
1598 34 14 3 39 8 55 11 388 68 822 275 1140 544 86 72 255 247 325 335 71 89
200 270 200 280 0 2 19 36 43 77 131 224 259 603 292 863 4 28 10 61 13 75 3
14 7 645 9 1403 l4 1377 -1343 -1 c-739 -1 -1374 -6 -1413 -10z"/>
</g>
</svg>
