<?xml version="1.0" encoding="utf-8"?>
<!-- Generator: Adobe Illustrator 19.2.0, SVG Export Plug-In . SVG Version: 6.00 Build 0)  -->
<svg version="1.1" id="plasmech-icon" xmlns="http://www.w3.org/2000/svg" xmlns:xlink="http://www.w3.org/1999/xlink" x="0px"
	 y="0px" viewBox="0 0 100 100" style="enable-background:new 0 0 100 100;" xml:space="preserve">
<style type="text/css">
	.st0{fill:#224180;}
</style>
<path id="p-inner" class="st0" d="M50,34.7c-8.4,0-15.3,6.8-15.3,15.3v15.3H50c8.4,0,15.3-6.8,15.3-15.3
	C65.3,41.6,58.5,34.7,50,34.7z"/>
<path id="p-outline" class="st0" d="M50,0.9C23.1,0.9,1.3,22.6,1,49.4h0v49.6h12.9h4.1h16.9h5.5H50c27.1,0,49.1-22,49.1-49.1V0.9H50
	z M50,82.1H34.7v8.3H17.9v-8.3V65.8V50c0-17.8,14.4-32.1,32.1-32.1c17.8,0,32.1,14.4,32.1,32.1C82.2,67.8,67.8,82.1,50,82.1z"/>
</svg>
